<svg width="1440" height="912" viewBox="0 0 1440 912" fill="none" xmlns="http://www.w3.org/2000/svg">
<path d="M0 -33V875.096C2.53461 873.698 4.59025 872.68 5.58812 868.846L1.29724 869.805C0.339279 865.812 8.16265 864.554 11.3359 864.993L9.41998 861.179C12.214 860.001 14.8285 862.916 16.5448 862.996C17.3032 863.036 24.5877 862.877 25.1066 862.817C26.1245 862.677 35.2451 859.742 35.6243 859.362C36.7818 858.224 35.9436 856.487 36.6621 855.409C38.139 853.233 51.9696 854.391 54.8834 856.447L55.8812 854.431C65.7603 859.582 74.4618 860.241 85.2788 858.025C91.0665 856.847 88.4121 858.284 92.2041 858.384C99.3289 858.544 109.447 854.89 115.175 854.59C116.772 854.511 118.867 855.968 120.803 855.509C121.801 855.269 121.741 853.033 123.019 852.654C124.515 852.194 126.172 853.392 127.569 853.273C133.277 852.734 146.828 847.123 152.715 846.883C155.09 846.783 157.166 848.081 159.202 847.802C161.018 847.562 161.876 845.765 164.949 845.825C169.001 845.905 173.99 849.319 176.305 849.439C179.259 849.579 183.889 846.963 184.967 847.023C187.003 847.123 190.116 850.278 193.708 849.739C195.724 849.439 196.363 847.422 197.76 847.023C199.775 846.424 202.111 847.243 204.086 846.664C205.423 846.264 206.302 844.268 207.12 844.208C207.918 844.148 209.635 846.025 211.85 845.885C214.045 845.745 215.083 843.828 216.32 843.489C224.663 841.113 233.065 843.868 241.607 842.99C242.704 842.87 245.518 842.491 246.277 842.091C247.813 841.253 245.598 838.118 249.27 839.176C250.168 839.376 248.272 843.09 253.721 842.491C259.748 841.832 257.672 837.898 260.746 837.259C266.753 836.022 273.04 840.494 279.007 836.341C281.661 836.561 293.616 837.699 294.814 836.84C295.891 836.081 295.672 832.987 297.089 832.727C297.647 832.627 299.045 833.566 300.042 833.466C308.784 832.727 316.907 831.15 325.887 830.75C326.845 830.71 334.03 832.907 332.593 829.612L330.178 826.737C333.591 826.178 335.946 828.933 339.279 828.734C342.073 828.574 343.131 826.378 345.266 825.919C353.668 824.102 349.677 823.842 354.327 821.686C358.119 819.929 366.381 820.188 365.723 813.459C365.863 813.22 367.559 812.721 368.018 812.761C374.604 813.24 385.181 820.847 392.466 822.384C395.46 823.023 399.611 822.305 402.285 823.103C403.802 823.562 404.7 825.579 406.676 826.198C409.131 826.957 414.08 825.539 416.774 825.799C419.109 826.018 424.797 829.253 426.194 829.333C430.944 829.612 436.133 825.1 440.564 825.919C442.839 826.338 445.473 829.652 447.848 830.052C449.684 830.351 451.64 829.093 453.975 829.772C456.051 830.371 463.735 836.421 466.848 837.08C473.194 838.418 477.505 834.544 487.125 839.755C489.739 841.173 493.352 845.406 495.567 845.725C497.822 846.065 499.479 844.308 501.115 844.348C502.732 844.388 504.548 846.504 506.124 846.724C508.919 847.123 512.251 843.789 519.596 846.524C524.805 848.461 529.375 855.449 534.564 852.534L535.502 854.431C539.474 851.575 548.614 855.589 551.728 855.249C553.524 855.05 554.921 852.534 556.438 852.773C558.094 853.053 564.7 855.988 566.576 857.006C568.612 858.105 570.587 861.239 573.322 861.718C574.958 861.998 576.355 860.121 578.59 860.241C583.46 860.54 590.186 864.893 595.155 865.772C599.506 866.53 604.575 864.973 608.387 867.908C614.215 872.381 612.898 870.424 619.524 873.019C633.135 878.37 631.318 878.87 646.526 878.59C651.196 878.51 656.046 881.146 660.955 877.432C663.131 882.304 663.59 878.91 666.883 878.75C668.26 878.69 672.012 878.81 673.489 878.93C674.327 878.989 675.265 880.427 676.223 880.267C678.598 879.908 679.117 875.675 678.758 873.658C678.957 873.359 684.226 876.314 685.144 876.354C686.501 876.434 687.299 874.677 688.637 874.757C689.914 874.856 691.331 876.773 693.546 876.554C695.482 876.354 696.181 874.078 698.376 873.658C707.856 871.802 716.418 872.68 726.376 870.044C731.765 868.627 732.703 871.183 735.816 864.094C744.218 866.65 752.86 868.148 761.482 865.891C763.957 865.253 765.872 862.737 767.27 862.577C768.766 862.397 770.922 863.575 772.858 863.136C773.975 862.877 773.995 859.941 776.111 859.422C778.087 858.923 783.435 860.361 785.451 860.161C787.327 859.981 790.261 858.284 792.695 857.745C796.228 856.946 801.537 858.843 800.359 852.554C804.69 854.93 808.921 850.837 813.332 849.739C818.481 848.461 822.432 848.481 826.963 849.399C832.092 850.417 835.624 850.697 840.773 849.419C842.29 849.04 843.368 847.243 844.964 847.063C846.82 846.843 849.774 848.181 852.568 847.822C854.684 847.562 856.081 845.925 857.318 845.865C858.835 845.805 860.392 847.562 862.188 847.742C865.621 848.121 871.089 845.506 874.561 845.725C876.537 845.845 877.994 847.502 878.393 847.502C878.733 847.502 881.008 845.106 882.824 844.527C885.718 843.629 889.011 844.447 891.286 843.409C892.623 842.81 893.761 840.015 896.016 839.975L895.118 837.18C903.899 835.922 905.296 833.286 914.257 836.7C927.25 841.652 932.658 847.283 947.507 846.005C957.884 845.106 969.24 845.226 979.918 845.805C985.685 846.105 990.036 845.466 994.946 848.66C995.964 849.319 996.163 851.216 997.161 851.456C998.299 851.715 1001.27 849.679 1003.69 849.719C1007.92 849.798 1010.93 853.093 1014.28 853.512C1020.27 854.291 1027.38 850.318 1029.57 850.557C1030.97 850.697 1032.09 852.334 1033.54 852.534C1035.54 852.813 1037.75 851.236 1039.11 851.635C1040.33 851.995 1040.25 854.191 1041.33 854.451C1048.41 856.168 1056.1 854.75 1063.04 855.509C1070.21 856.288 1069.09 857.346 1077.87 856.907C1083.18 856.647 1090.62 859.043 1090.46 850.597C1093 850.477 1093.84 853.333 1096.17 853.991C1100.52 855.249 1107.77 854.71 1112.36 853.832C1114.19 853.472 1116.61 851.635 1117.61 851.715C1118.92 851.835 1120.82 853.912 1122.49 854.491C1135.27 858.803 1146.86 861.778 1159.68 865.213C1166.68 867.089 1178.36 872.301 1185.12 870.104C1187.04 869.485 1188.89 867.309 1189.55 867.229C1190.03 867.169 1198.25 869.645 1198.97 870.005C1200.41 870.703 1200.35 872.221 1201.79 872.96C1206.06 875.136 1216.34 876.314 1221.13 875.475C1223.1 875.136 1224.12 873.359 1226.93 873.499C1230.35 873.658 1229.55 875.715 1231.5 876.793C1235.22 878.87 1244.75 879.808 1248.97 879.449C1253.36 879.089 1258.88 876.174 1264.93 877.652C1272.52 879.509 1267.61 880.148 1276.81 879.429C1282.77 878.97 1284.13 879.688 1289.2 882.324C1293.17 878.051 1293.37 882.504 1298.06 883.861C1303.47 885.439 1305.94 886.377 1311.11 889.013C1326.04 896.66 1340.57 892.886 1354.02 899.735C1355.74 900.613 1359.07 903.968 1360.21 904.107C1361.47 904.267 1362.48 902.35 1363.86 902.33C1365.02 902.33 1366.22 903.948 1367.75 904.207C1373 905.086 1377.01 905.166 1382.1 907.921L1383.5 904.247C1386.43 904.806 1388.29 907.242 1391.66 907.162C1394.18 907.102 1395.51 905.245 1398.07 905.405C1399.25 905.485 1405.75 906.963 1407.69 907.342C1412.2 908.26 1420.78 911.675 1424.19 911.954C1429.76 912.433 1434.65 908.979 1440 909.997V-33H0Z" fill="#111111"/>
</svg>
